<svg height="512" viewBox="0 0 58 59" width="512" xmlns="http://www.w3.org/2000/svg"><g id="Page-1" fill="none" fill-rule="evenodd"><g id="085---Weather-Storm" fill-rule="nonzero"><path id="Shape" d="m40 4c-.5522847 0-1-.44771525-1-1v-2c0-.55228475.4477153-1 1-1s1 .44771525 1 1v2c0 .55228475-.4477153 1-1 1z" fill="#f29c1f"/><path id="Shape" d="m58 37c0 4.9705627-4.0294373 9-9 9h-40c-4.48275823-.0076764-8.27645429-3.3131478-8.89773327-7.7526515-.62127898-4.4395036 2.11929164-8.6594022 6.42773327-9.8973485v-.01c-.34528542-1.2510161-.52349909-2.5422246-.53-3.84.00132003-5.9577967 3.64681848-11.308454 9.190892-13.4898736 5.5440736-2.18141961 11.8582685-.7495903 15.919108 3.6098736.844465.9019306 1.5672685 1.9104937 2.15 3h.01c3.3925504-2.080872 7.6452141-2.1642158 11.1166901-.2178652 3.471476 1.9463505 5.6188346 5.6179914 5.6133099 9.5978652 0 .35-.02.7-.05 1.05 4.5760866.4880559 8.0478449 4.3479611 8.05 8.95z" fill="#67b9cc"/><path id="Shape" d="m49 16c.0043794 1.5536084-.3990597 3.08116-1.17 4.43-3.3947761-4.5635372-9.7108107-5.7824972-14.56-2.81h-.01c-.5827315-1.0895063-1.305535-2.0980694-2.15-3 .7314578-4.63603588 4.9027316-7.93167077 9.5822148-7.57070449 4.6794831.36096628 8.2959797 4.25733469 8.3077852 8.95070449z" fill="#f0c419"/><g fill="#f29c1f"><path id="Shape" d="m33.5 5.741c-.3576137.00034843-.6881932-.19029718-.867-.5l-1-1.731c-.2716903-.47785996-.1067416-1.08542045.3693057-1.36027453s1.0846885-.11393908 1.3626943.36027453l1 1.731c.1785415.30924248.1786393.6902222.0002566.99955632-.1783827.30933411-.5081742.50007763-.8652566.50044368z"/><path id="Shape" d="m55 17h-2c-.5522847 0-1-.4477153-1-1s.4477153-1 1-1h2c.5522847 0 1 .4477153 1 1s-.4477153 1-1 1z"/><path id="Shape" d="m51.259 10.5c-.4525881-.0000199-.8487411-.3040116-.9658809-.74117767-.1171399-.43716609.0739396-.89850839.4658809-1.12482233l1.732-1c.47786-.27169029 1.0854205-.10674157 1.3602745.3693057.2748541.47604726.1139391 1.08468853-.3602745 1.3626943l-1.732 1c-.1518701.0881308-.3244113.1343718-.5.134z"/><path id="Shape" d="m46.5 5.741c-.3570824-.00036605-.6868739-.19110957-.8652566-.50044368-.1783827-.30933412-.1782849-.69031384.0002566-.99955632l1-1.731c.2780058-.47421361.886647-.63512861 1.3626943-.36027453s.640996.88241457.3693057 1.36027453l-1 1.731c-.1788068.30970282-.5093863.50034843-.867.5z"/></g><path id="Shape" d="m24.218 46.785-7.372 11.426c-.1342234.2038293-.1059221.4740623.0676196.6456595.1735416.1715972.4440764.196852.6463804.0603405l22.313-14.951c.1893732-.1211223.2746338-.3537336.2083937-.5685476s-.2676944-.3590137-.4923937-.3524524h-5.75c-.1988004.0081134-.3834925-.102415-.4702961-.2814474-.0868035-.1790323-.0591972-.3924933.0702961-.5435526l8.433-9.395c.1294933-.1510593.1570996-.3645203.0702961-.5435526-.0868036-.1790324-.2714957-.2895608-.4702961-.2814474h-13.458c-.1679415-.0010245-.3265432.0771647-.428.211l-9.649 13c-.1103688.1554892-.1226927.3602158-.0317733.5278219.0909195.1676061.269252.2689094.4597733.2611781h5.422c.1896749-.0077713.3673909.0925403.4587534.258943.0913625.1664028.0806112.3701913-.0277534.526057z" fill="#f0c419"/></g></g></svg>